<?xml version="1.0" encoding="UTF-8"?>
<svg width="18px" height="18px" viewBox="0 0 18 18" version="1.1" xmlns="http://www.w3.org/2000/svg" xmlns:xlink="http://www.w3.org/1999/xlink">
    <!-- Generator: Sketch 53 (72520) - https://sketchapp.com -->
    <title>Indicator/Map/Md</title>
    <desc>Created with Sketch.</desc>
    <g id="Indicator/Map/Md" stroke="none" stroke-width="1" fill="none" fill-rule="evenodd">
        <path d="M9.39478298,16.8068328 C9.22532388,17.0248655 8.91119977,17.0642421 8.69316715,16.894783 C8.66060734,16.8694769 8.63130323,16.84024 8.60592245,16.8077383 C4.81813549,11.9572481 2.92431641,8.58105908 2.92431641,6.56 C2.92431641,3.53797077 5.88299301,0.879963787 9.04166667,0.879963787 C12.237937,0.879963787 14.9758301,3.35818162 14.9758301,6.5 C14.9758301,8.62118765 13.1135002,12.0221878 9.39478298,16.8068328 Z M13.9758301,6.5 C13.9758301,3.93392258 11.7066512,1.87996379 9.04166667,1.87996379 C6.41280783,1.87996379 3.92431641,4.11556723 3.92431641,6.56 C3.92431641,8.20926708 5.61590305,11.2856167 8.99894337,15.682555 C12.318635,11.3421072 13.9758301,8.2503782 13.9758301,6.5 Z M9,9 C10.1045695,9 11,8.1045695 11,7 C11,5.8954305 10.1045695,5 9,5 C7.8954305,5 7,5.8954305 7,7 C7,8.1045695 7.8954305,9 9,9 Z M9,10 C7.34314575,10 6,8.65685425 6,7 C6,5.34314575 7.34314575,4 9,4 C10.6568542,4 12,5.34314575 12,7 C12,8.65685425 10.6568542,10 9,10 Z" id="Combined-Shape" fill="#000000" fill-rule="nonzero"></path>
    </g>
</svg>