<?xml version="1.0" encoding="UTF-8"?>
<svg width="18px" height="18px" viewBox="0 0 18 18" version="1.1" xmlns="http://www.w3.org/2000/svg" xmlns:xlink="http://www.w3.org/1999/xlink">
    <!-- Generator: Sketch 53.2 (72643) - https://sketchapp.com -->
    <title>Social/Wechat/Md</title>
    <desc>Created with Sketch.</desc>
    <g id="Social/Wechat/Md" stroke="none" stroke-width="1" fill="none" fill-rule="evenodd">
        <g id="iconmonstr-wechat-1" transform="translate(2.000000, 3.000000)" fill="#000000">
            <path d="M12.5428333,10.2229167 C13.4318333,9.57833333 14,8.62575 14,7.56641667 C14,5.62625 12.11175,4.053 9.78308333,4.053 C7.45441667,4.053 5.56616667,5.62625 5.56616667,7.56641667 C5.56616667,9.50716667 7.45441667,11.0804167 9.78308333,11.0804167 C10.2643333,11.0804167 10.7286667,11.0121667 11.15975,10.8879167 L11.2834167,10.86925 C11.3645,10.86925 11.438,10.8943333 11.5074167,10.934 L12.4308333,11.4671667 L12.5119167,11.4934167 C12.5895,11.4934167 12.6525,11.4304167 12.6525,11.3528333 L12.62975,11.2501667 L12.4395833,10.5414167 L12.425,10.4515833 C12.425,10.3570833 12.4716667,10.2736667 12.5428333,10.2229167 L12.5428333,10.2229167 Z M5.06041667,0.17325 C2.26566667,0.17325 -1.77635684e-15,2.06091667 -1.77635684e-15,4.39016667 C-1.77635684e-15,5.66066667 0.681333333,6.80458333 1.74825,7.5775 C1.834,7.63816667 1.89,7.7385 1.89,7.85225 L1.8725,7.95958333 L1.64441667,8.81008333 L1.617,8.93316667 C1.617,9.0265 1.69283333,9.10233333 1.78558333,9.10233333 L1.88358333,9.07083333 L2.99133333,8.43091667 C3.07416667,8.38308333 3.16225,8.35333333 3.25966667,8.35333333 L3.40841667,8.3755 C3.92525,8.52425 4.48291667,8.60708333 5.06041667,8.60708333 L5.33808333,8.60008333 C5.22841667,8.27108333 5.16833333,7.92458333 5.16833333,7.567 C5.16833333,5.44308333 7.2345,3.72108333 9.78308333,3.72108333 L10.0578333,3.72808333 C9.67691667,1.71383333 7.5845,0.17325 5.06041667,0.17325 L5.06041667,0.17325 Z M8.37725,7.00466667 C8.06691667,7.00466667 7.8155,6.75266667 7.8155,6.44233333 C7.8155,6.13141667 8.06691667,5.88 8.37725,5.88 C8.68816667,5.88 8.93958333,6.13141667 8.93958333,6.44233333 C8.93958333,6.75266667 8.68816667,7.00466667 8.37725,7.00466667 Z M11.1889167,7.00466667 C10.878,7.00466667 10.6265833,6.75266667 10.6265833,6.44233333 C10.6265833,6.13141667 10.878,5.88 11.1889167,5.88 C11.49925,5.88 11.7506667,6.13141667 11.7506667,6.44233333 C11.7506667,6.75266667 11.49925,7.00466667 11.1889167,7.00466667 Z M3.37341667,3.71525 C3.00066667,3.71525 2.69908333,3.41308333 2.69908333,3.04091667 C2.69908333,2.66816667 3.00066667,2.366 3.37341667,2.366 C3.74616667,2.366 4.04833333,2.66816667 4.04833333,3.04091667 C4.04833333,3.41308333 3.74616667,3.71525 3.37341667,3.71525 Z M6.74683333,3.71525 C6.37408333,3.71525 6.0725,3.41308333 6.0725,3.04091667 C6.0725,2.66816667 6.37408333,2.366 6.74683333,2.366 C7.11958333,2.366 7.42175,2.66816667 7.42175,3.04091667 C7.42175,3.41308333 7.11958333,3.71525 6.74683333,3.71525 Z" id="Shape"></path>
        </g>
    </g>
</svg>