<?xml version="1.0" encoding="UTF-8"?>
<svg width="18px" height="18px" viewBox="0 0 18 18" version="1.1" xmlns="http://www.w3.org/2000/svg" xmlns:xlink="http://www.w3.org/1999/xlink">
    <!-- Generator: Sketch 53 (72520) - https://sketchapp.com -->
    <title>User/Top emerging/Md</title>
    <desc>Created with Sketch.</desc>
    <g id="User/Top-emerging/Md" stroke="none" stroke-width="1" fill="none" fill-rule="evenodd">
        <g id="Group-19" transform="translate(1.000000, 1.000000)">
            <g id="Group-4"></g>
            <path d="M8.03571429,15.0714286 C11.921432,15.0714286 15.0714286,11.921432 15.0714286,8.03571429 C15.0714286,4.14999658 11.921432,1 8.03571429,1 C4.14999658,1 1,4.14999658 1,8.03571429 C1,11.921432 4.14999658,15.0714286 8.03571429,15.0714286 Z M8.03571429,16.0714286 C3.59771183,16.0714286 0,12.4737167 0,8.03571429 C0,3.59771183 3.59771183,0 8.03571429,0 C12.4737167,0 16.0714286,3.59771183 16.0714286,8.03571429 C16.0714286,12.4737167 12.4737167,16.0714286 8.03571429,16.0714286 Z" id="Oval" fill="#000000" fill-rule="nonzero"></path>
            <path d="M8.54166667,6.90025202 L8.54166667,11.05 L7.54166667,11.05 L7.54166667,6.8225201 L5.89472358,8.4099932 L5.2007354,7.6900068 L7.99947439,4.99232836 L10.8061652,7.68948158 L10.1132684,8.41051842 L8.54166667,6.90025202 Z" id="Combined-Shape" fill="#000000" fill-rule="nonzero"></path>
        </g>
    </g>
</svg>