<?xml version="1.0" encoding="UTF-8"?>
<svg width="18px" height="18px" viewBox="0 0 18 18" version="1.1" xmlns="http://www.w3.org/2000/svg" xmlns:xlink="http://www.w3.org/1999/xlink">
    <!-- Generator: Sketch 53 (72520) - https://sketchapp.com -->
    <title>User/Settings/Md</title>
    <desc>Created with Sketch.</desc>
    <g id="User/Settings/Md" stroke="none" stroke-width="1" fill="none" fill-rule="evenodd">
        <path d="M3.89153034,8.40537807 C3.86881774,8.60153823 3.85714286,8.80106238 3.85714286,9.00331334 C3.85714286,9.18737238 3.86681195,9.36917308 3.8856699,9.54823521 C3.99052932,10.5439083 4.37949941,11.4549074 4.97001611,12.1986685 C5.20758064,12.4978832 5.47776444,12.7700312 5.77519177,13.0097369 C6.51773267,13.6081731 7.43007536,14.0044045 8.42857143,14.1147826 C8.61619077,14.1355229 8.80685195,14.1461705 9,14.1461705 C9.19314805,14.1461705 9.38380923,14.1355229 9.57142857,14.1147826 C10.5699246,14.0044045 11.4822673,13.6081731 12.2248082,13.0097369 C12.5222356,12.7700312 12.7924194,12.4978832 13.0299839,12.1986685 C13.6205006,11.4549074 14.0094707,10.5439083 14.1143301,9.54823521 C14.1331881,9.36917308 14.1428571,9.18737238 14.1428571,9.00331334 C14.1428571,8.80106238 14.1311823,8.60153823 14.1084697,8.40537807 C13.9940575,7.41724323 13.5995602,6.51447032 13.0064236,5.77850511 C12.7667179,5.48107778 12.4945698,5.21089397 12.1953552,4.97332944 C11.4581992,4.38805694 10.5567624,4.00076719 9.57142857,3.89184407 C9.38380923,3.8711038 9.19314805,3.86045619 9,3.86045619 C8.80685195,3.86045619 8.61619077,3.8711038 8.42857143,3.89184407 C7.44323764,4.00076719 6.54180082,4.38805694 5.80464484,4.97332944 C5.50543018,5.21089397 5.23328212,5.48107778 4.99357643,5.77850511 C4.4004398,6.51447032 4.00594251,7.41724323 3.89153034,8.40537807 Z M4.18163072,4.96655939 L2.93908473,3.72401341 L3.74720677,2.91589137 L4.99215809,4.1608427 C5.94250647,3.37340894 7.12846427,2.86038256 8.42857143,2.74322363 L8.42857143,0.976806641 L9.57142857,0.976806641 L9.57142857,2.74322363 C10.8715357,2.86038256 12.0574935,3.37340894 13.0078419,4.1608427 L14.2527932,2.91589137 L15.0609153,3.72401341 L13.8183693,4.96655939 C14.6140396,5.91528767 15.134695,7.10245751 15.2576448,8.40537807 L17,8.40537807 L17,9.54823521 L15.2624221,9.54823521 C15.1498871,10.8587282 14.6352526,12.0543521 13.8424706,13.0111552 L15.0609153,14.2295999 L14.2527932,15.0377219 L13.0367539,13.8216826 C12.0815959,14.6227454 10.8847533,15.145053 9.57142857,15.263403 L9.57142857,16.9768066 L8.42857143,16.9768066 L8.42857143,15.263403 C7.11524669,15.145053 5.91840413,14.6227454 4.96324606,13.8216826 L3.74720677,15.0377219 L2.93908473,14.2295999 L4.15752936,13.0111552 C3.36474736,12.0543521 2.85011295,10.8587282 2.73757789,9.54823521 L1,9.54823521 L1,8.40537807 L2.74235525,8.40537807 C2.86530495,7.10245751 3.38596039,5.91528767 4.18163072,4.96655939 Z M9,11.8604562 C7.42204357,11.8604562 6.14285714,10.5812698 6.14285714,9.00331334 C6.14285714,7.42535691 7.42204357,6.14617048 9,6.14617048 C10.5779564,6.14617048 11.8571429,7.42535691 11.8571429,9.00331334 C11.8571429,10.5812698 10.5779564,11.8604562 9,11.8604562 Z M9,10.7175991 C9.94677386,10.7175991 10.7142857,9.95008719 10.7142857,9.00331334 C10.7142857,8.05653948 9.94677386,7.28902762 9,7.28902762 C8.05322614,7.28902762 7.28571429,8.05653948 7.28571429,9.00331334 C7.28571429,9.95008719 8.05322614,10.7175991 9,10.7175991 Z" id="Combined-Shape" fill="#000000"></path>
    </g>
</svg>