<?xml version="1.0" encoding="UTF-8"?>
<svg width="18px" height="18px" viewBox="0 0 18 18" version="1.1" xmlns="http://www.w3.org/2000/svg" xmlns:xlink="http://www.w3.org/1999/xlink">
    <!-- Generator: Sketch 53 (72520) - https://sketchapp.com -->
    <title>BasicAction/CircleAlert/Md</title>
    <desc>Created with Sketch.</desc>
    <g id="BasicAction/CircleAlert/Md" stroke="none" stroke-width="1" fill="none" fill-rule="evenodd">
        <g id="CircleAdd_final" transform="translate(1.000000, 1.000000)" fill="#000000" fill-rule="nonzero">
            <path d="M8,0 C3.581722,-2.705415e-16 5.41083001e-16,3.581722 0,8 C-5.41083001e-16,12.418278 3.581722,16 8,16 C12.418278,16 16,12.418278 16,8 C16,5.87826808 15.1571453,3.84343678 13.6568542,2.34314575 C12.1565632,0.842854723 10.1217319,1.2991861e-16 8,0 Z M8,15.1111111 C4.07264178,15.1111111 0.888888889,11.9273582 0.888888889,8 C0.888888889,4.07264178 4.07264178,0.888888889 8,0.888888889 C11.9273582,0.888888889 15.1111111,4.07264178 15.1111111,8 C15.1111111,9.88598393 14.3619069,11.6947229 13.0283149,13.0283149 C11.6947229,14.3619069 9.88598393,15.1111111 8,15.1111111 Z M8.55111111,7.44888889 L12,7.44888889 L12,8.55111111 L8.55111111,8.55111111 L8.55111111,12 L7.44888889,12 L7.44888889,8.55111111 L4,8.55111111 L4,7.44888889 L7.44888889,7.44888889 L7.44888889,4 L8.55111111,4 L8.55111111,7.44888889 Z" id="Shape"></path>
        </g>
    </g>
</svg>