<?xml version="1.0" encoding="UTF-8"?>
<svg width="18px" height="18px" viewBox="0 0 18 18" version="1.1" xmlns="http://www.w3.org/2000/svg" xmlns:xlink="http://www.w3.org/1999/xlink">
    <!-- Generator: Sketch 53 (72520) - https://sketchapp.com -->
    <title>User/Bell/Md</title>
    <desc>Created with Sketch.</desc>
    <g id="User/Bell/Md" stroke="none" stroke-width="1" fill="none" fill-rule="evenodd">
        <g id="Bell_final" transform="translate(2.000000, 1.000000)" fill="#000000" fill-rule="nonzero">
            <path d="M13.39,11.69 C12.1974481,10.0289395 11.5382816,8.04446485 11.5,6 L11.5,4.5 C11.5,2.01471863 9.48528137,-7.77156117e-16 7,-8.8817842e-16 C4.51471863,-9.99200722e-16 2.5,2.01471863 2.5,4.5 L2.5,6 C2.46171835,8.04446485 1.8025519,10.0289395 0.61,11.69 C0.491847737,11.8412955 0.468659997,12.0461205 0.55,12.22 C0.634126709,12.3916955 0.808802448,12.5003826 1,12.5 L4.37,12.5 C4.29446373,12.7430041 4.25405497,12.9955589 4.25,13.25 C4.25000003,14.768783 5.48121696,15.9999999 7,15.9999999 C8.51878304,15.9999999 9.74999997,14.768783 9.75,13.25 C9.74594503,12.9955589 9.70553627,12.7430041 9.63,12.5 L13,12.5 C13.1911976,12.5003826 13.3658733,12.3916955 13.45,12.22 C13.53134,12.0461205 13.5081523,11.8412955 13.39,11.69 Z M8.75,13.25 C8.75,14.2164983 7.96649831,15 7,15 C6.03350169,15 5.25,14.2164983 5.25,13.25 C5.25279581,12.9896399 5.31432482,12.733269 5.43,12.5 L8.57,12.5 C8.68567518,12.733269 8.74720419,12.9896399 8.75,13.25 L8.75,13.25 Z M1.94,11.5 C2.93565132,9.83619811 3.4738277,7.9387814 3.5,6 L3.5,4.5 C3.50000003,2.5670034 5.0670034,1.00000005 7,1.00000005 C8.9329966,1.00000005 10.5,2.5670034 10.5,4.5 L10.5,6 C10.5261723,7.9387814 11.0643487,9.83619811 12.06,11.5 L1.94,11.5 Z" id="Shape"></path>
        </g>
    </g>
</svg>