<?xml version="1.0" encoding="UTF-8"?>
<svg width="18px" height="18px" viewBox="0 0 18 18" version="1.1" xmlns="http://www.w3.org/2000/svg" xmlns:xlink="http://www.w3.org/1999/xlink">
    <!-- Generator: Sketch 53 (72520) - https://sketchapp.com -->
    <title>Action/Trash/Md</title>
    <desc>Created with Sketch.</desc>
    <g id="Action/Trash/Md" stroke="none" stroke-width="1" fill="none" fill-rule="evenodd">
        <g id="Trash_final" transform="translate(3.000000, 1.000000)" fill="#000000" fill-rule="nonzero">
            <path d="M12,3 L9,3 L9,1.46525691 C9,1.18911453 8.77614237,0.965256908 8.5,0.965256908 L3.5,0.965256908 C3.22385763,0.965256908 3,1.18911453 3,1.46525691 L3,3 L6.20337115e-15,3 L6.20337115e-15,4 L1,4 L2,14.54 C2.02089851,14.800411 2.23875315,15.0008372 2.5,15 L9.5,15 C9.76124685,15.0008372 9.97910149,14.800411 10,14.54 L11,4 L12,4 L12,3 Z M4,1.96525691 L8,1.96525691 L8,3.00000003 L4,3.00000003 L4,1.96525691 Z M9,14.04 L3,14.04 L2.05,4 L10,4 L9,14.04 Z" id="Shape"></path>
        </g>
    </g>
</svg>