<?xml version="1.0" encoding="UTF-8"?>
<svg width="18px" height="18px" viewBox="0 0 18 18" version="1.1" xmlns="http://www.w3.org/2000/svg" xmlns:xlink="http://www.w3.org/1999/xlink">
    <!-- Generator: Sketch 53 (72520) - https://sketchapp.com -->
    <title>User/Established/Md</title>
    <desc>Created with Sketch.</desc>
    <g id="User/Established/Md" stroke="none" stroke-width="1" fill="none" fill-rule="evenodd">
        <g id="Group" fill="#000000" fill-rule="nonzero">
            <path d="M9,17.1923077 C4.4755134,17.1923077 0.807692308,13.5244866 0.807692308,9 C0.807692308,4.4755134 4.4755134,0.807692308 9,0.807692308 C13.5244866,0.807692308 17.1923077,4.4755134 17.1923077,9 C17.1923077,13.5244866 13.5244866,17.1923077 9,17.1923077 Z M9,16.1923077 C12.9722019,16.1923077 16.1923077,12.9722019 16.1923077,9 C16.1923077,5.02779815 12.9722019,1.80769231 9,1.80769231 C5.02779815,1.80769231 1.80769231,5.02779815 1.80769231,9 C1.80769231,12.9722019 5.02779815,16.1923077 9,16.1923077 Z M6.95214844,7.06 L6.95214844,10.3277901 L9.04772005,9.06367725 L11.0577393,10.313615 L11.0577393,7.06 L6.95214844,7.06 Z M5.95214844,12.0988765 L5.95214844,6.06 L12.0577393,6.06 L12.0577393,12.1130517 L9.03977995,10.2363228 L5.95214844,12.0988765 Z" id="Combined-Shape"></path>
        </g>
    </g>
</svg>