<?xml version="1.0" encoding="UTF-8"?>
<svg width="18px" height="18px" viewBox="0 0 18 18" version="1.1" xmlns="http://www.w3.org/2000/svg" xmlns:xlink="http://www.w3.org/1999/xlink">
    <!-- Generator: Sketch 53 (72520) - https://sketchapp.com -->
    <title>User/Blue chip/Md</title>
    <desc>Created with Sketch.</desc>
    <g id="User/Blue-chip/Md" stroke="none" stroke-width="1" fill="none" fill-rule="evenodd">
        <path d="M9,16 C12.8659932,16 16,12.8659932 16,9 C16,5.13400675 12.8659932,2 9,2 C5.13400675,2 2,5.13400675 2,9 C2,12.8659932 5.13400675,16 9,16 Z M9,17 C4.581722,17 1,13.418278 1,9 C1,4.581722 4.581722,1 9,1 C13.418278,1 17,4.581722 17,9 C17,13.418278 13.418278,17 9,17 Z M6.87867966,8.84224387 L9,10.9635642 L11.1213203,8.84224387 L9,6.72092353 L6.87867966,8.84224387 Z M9,5.30670997 L12.5355339,8.84224387 L9,12.3777778 L5.46446609,8.84224387 L9,5.30670997 Z" id="Combined-Shape" fill="#000000" fill-rule="nonzero"></path>
    </g>
</svg>