<?xml version="1.0" encoding="UTF-8"?>
<svg width="18px" height="18px" viewBox="0 0 18 18" version="1.1" xmlns="http://www.w3.org/2000/svg" xmlns:xlink="http://www.w3.org/1999/xlink">
    <!-- Generator: Sketch 53 (72520) - https://sketchapp.com -->
    <title>Social/Facebook/Md</title>
    <desc>Created with Sketch.</desc>
    <g id="Social/Facebook/Md" stroke="none" stroke-width="1" fill="none" fill-rule="evenodd">
        <g id="Facebook_final" transform="translate(3.000000, 3.000000)" fill="#000000">
            <path d="M12,0.66 L12,11.34 C11.9946323,11.7022613 11.7022613,11.9946323 11.34,12 L8.28,12 L8.28,7.36 L9.84,7.36 L10.08,5.54 L8.28,5.54 L8.28,4.39 C8.28,3.86 8.43,3.5 9.18,3.5 L10.18,3.5 L10.18,1.88 C9.71491265,1.83175505 9.24758018,1.80838843 8.78,1.81 C8.13697084,1.76567658 7.5070684,2.00687298 7.0580934,2.46933651 C6.60911839,2.93180003 6.38666759,3.56856405 6.45,4.21 L6.45,5.54 L4.85,5.54 L4.85,7.36 L6.41,7.36 L6.41,12 L0.66,12 C0.484957117,12 0.317083534,11.9304645 0.193309524,11.8066905 C0.0695355146,11.6829165 0,11.5150429 0,11.34 L0,0.66 C0,0.484957117 0.0695355146,0.317083534 0.193309524,0.193309524 C0.317083534,0.0695355146 0.484957117,0 0.66,0 L11.34,0 C11.5150429,0 11.6829165,0.0695355146 11.8066905,0.193309524 C11.9304645,0.317083534 12,0.484957117 12,0.66 Z" id="Path"></path>
        </g>
    </g>
</svg>