<?xml version="1.0" encoding="UTF-8"?>
<svg width="18px" height="18px" viewBox="0 0 18 18" version="1.1" xmlns="http://www.w3.org/2000/svg" xmlns:xlink="http://www.w3.org/1999/xlink">
    <!-- Generator: Sketch 53 (72520) - https://sketchapp.com -->
    <title>Indicator/Lock/Md</title>
    <desc>Created with Sketch.</desc>
    <g id="Indicator/Lock/Md" stroke="none" stroke-width="1" fill="none" fill-rule="evenodd">
        <path d="M5.45062885,8 L5.45445585,4.93339676 C5.71086591,3.02564418 6.94566612,2.02270508 9,2.02270508 C11.0577076,2.02270508 12.2783082,3.03063432 12.5,5 L12.5,8 L13,8 C13.5522847,8 14,8.44771525 14,9 L14,15 C14,15.5522847 13.5522847,16 13,16 L5,16 C4.44771525,16 4,15.5522847 4,15 L4,9 C4,8.44771525 4.44771525,8 5,8 L5.45062885,8 Z M6.45,8 L11.5004722,8 L11.50323,5.05674154 C11.3444131,3.66630578 10.5650138,3.02270508 9,3.02270508 C7.43161253,3.02270508 6.6330794,3.67129592 6.45,5 L6.45,8 Z M5,9 L5,15 L13,15 L13,9 L5,9 Z M8.5,11.0456543 C8.5,10.7695119 8.72385763,10.5456543 9,10.5456543 C9.27614237,10.5456543 9.5,10.7695119 9.5,11.0456543 L9.5,13 C9.5,13.2761424 9.27614237,13.5 9,13.5 C8.72385763,13.5 8.5,13.2761424 8.5,13 L8.5,11.0456543 Z" id="Combined-Shape" fill="#000000" fill-rule="nonzero"></path>
    </g>
</svg>