<?xml version="1.0" encoding="UTF-8"?>
<svg width="18px" height="18px" viewBox="0 0 18 18" version="1.1" xmlns="http://www.w3.org/2000/svg" xmlns:xlink="http://www.w3.org/1999/xlink">
    <!-- Generator: Sketch 53.2 (72643) - https://sketchapp.com -->
    <title>Social/Instagram/Md</title>
    <desc>Created with Sketch.</desc>
    <g id="Social/Instagram/Md" stroke="none" stroke-width="1" fill="none" fill-rule="evenodd">
        <g id="Combined-Shape-2" transform="translate(2.000000, 2.000000)" fill="#000000" fill-rule="nonzero">
            <path d="M4.375,0.875 C2.44200338,0.875 0.875,2.44200338 0.875,4.375 L0.875,9.625 C0.875,11.5579966 2.44200338,13.125 4.375,13.125 L9.625,13.125 C11.5579966,13.125 13.125,11.5579966 13.125,9.625 L13.125,4.375 C13.125,2.44200338 11.5579966,0.875 9.625,0.875 L4.375,0.875 Z M4.375,0 L9.625,0 C12.0412458,-4.85722573e-16 14,1.95875422 14,4.375 L14,9.625 C14,12.0412458 12.0412458,14 9.625,14 L4.375,14 C1.95875422,14 3.88578059e-16,12.0412458 0,9.625 L0,4.375 C-2.91433544e-16,1.95875422 1.95875422,3.88578059e-16 4.375,0 Z M7,4.375 C5.55025253,4.375 4.375,5.55025253 4.375,7 C4.375,8.44974747 5.55025253,9.625 7,9.625 C8.44974747,9.625 9.625,8.44974747 9.625,7 C9.625,5.55025253 8.44974747,4.375 7,4.375 Z M7,3.5 C8.93299662,3.5 10.5,5.06700338 10.5,7 C10.5,8.93299662 8.93299662,10.5 7,10.5 C5.06700338,10.5 3.5,8.93299662 3.5,7 C3.5,5.06700338 5.06700338,3.5 7,3.5 Z M10.9375,3.9375 C10.4542508,3.9375 10.0625,3.54574916 10.0625,3.0625 C10.0625,2.57925084 10.4542508,2.1875 10.9375,2.1875 C11.4207492,2.1875 11.8125,2.57925084 11.8125,3.0625 C11.8125,3.54574916 11.4207492,3.9375 10.9375,3.9375 Z" id="Combined-Shape"></path>
        </g>
    </g>
</svg>