<?xml version="1.0" encoding="UTF-8"?>
<svg width="18px" height="18px" viewBox="0 0 18 18" version="1.1" xmlns="http://www.w3.org/2000/svg" xmlns:xlink="http://www.w3.org/1999/xlink">
    <!-- Generator: Sketch 53 (72520) - https://sketchapp.com -->
    <title>Indicator/Timer/Md</title>
    <desc>Created with Sketch.</desc>
    <g id="Indicator/Timer/Md" stroke="none" stroke-width="1" fill="none" fill-rule="evenodd">
        <g id="Timer_final" transform="translate(2.000000, 1.000000)" fill="#000000" fill-rule="nonzero">
            <path d="M7.5,3 L7.5,1 L10,1 L10,0 L4,0 L4,1 L6.5,1 L6.5,3 C3.01783986,3.26865449 0.370389754,6.24100576 0.50481661,9.73092609 C0.639243466,13.2208464 3.50749166,15.9807407 7,15.9807407 C10.4925083,15.9807407 13.3607565,13.2208464 13.4951834,9.73092609 C13.6296102,6.24100576 10.9821601,3.26865449 7.5,3 L7.5,3 Z M7,15 C3.96243388,15 1.5,12.5375661 1.5,9.5 C1.5,6.46243388 3.96243388,4 7,4 C10.0375661,4 12.5,6.46243388 12.5,9.5 C12.4944963,12.5352835 10.0352835,14.9944963 7,15 Z M7.5,9.29 L9.5,11.29 L8.8,11.99 L6.5,9.71 L6.5,5.5 L7.5,5.5 L7.5,9.29 Z" id="Shape"></path>
        </g>
    </g>
</svg>