<?xml version="1.0" encoding="UTF-8"?>
<svg width="18px" height="18px" viewBox="0 0 18 18" version="1.1" xmlns="http://www.w3.org/2000/svg" xmlns:xlink="http://www.w3.org/1999/xlink">
    <!-- Generator: Sketch 53 (72520) - https://sketchapp.com -->
    <title>Action/Reload/Md</title>
    <desc>Created with Sketch.</desc>
    <g id="Action/Reload/Md" stroke="none" stroke-width="1" fill="none" fill-rule="evenodd">
        <g id="Reload_final" transform="translate(0.000000, 1.000000)" fill="#000000" fill-rule="nonzero">
            <path d="M17.71,9.89 L14.6,12.19 L14.17,8.35 L15.31,8.85 C15.3531688,8.5686507 15.3765595,8.28462104 15.38,8 C15.3885709,5.58379545 14.0272592,3.37141385 11.8665508,2.28999944 C9.70584242,1.20858503 7.11896384,1.44493422 5.19,2.9 L4.44,1.9 C5.75312938,0.908776988 7.35476269,0.374899216 9,0.38 C13.2061258,0.385509013 16.614491,3.79387423 16.62,8 C16.6168389,8.45627901 16.5733361,8.91138478 16.49,9.36 L17.71,9.89 Z M9,14.38 C5.4764233,14.38 2.62,11.5235767 2.62,8 C2.62344049,7.71537896 2.64683117,7.4313493 2.69,7.15 L3.83,7.65 L3.4,3.81 L0.29,6.11 L1.51,6.64 C1.42666389,7.08861522 1.38316113,7.54372099 1.38,8 C1.38550901,12.2061258 4.79387423,15.614491 9,15.62 C10.6452373,15.6251008 12.2468706,15.091223 13.56,14.1 L12.81,13.1 C11.7127776,13.92924 10.3753305,14.378566 9,14.38 L9,14.38 Z" id="Shape"></path>
        </g>
    </g>
</svg>