<?xml version="1.0" encoding="UTF-8"?>
<svg width="18px" height="18px" viewBox="0 0 18 18" version="1.1" xmlns="http://www.w3.org/2000/svg" xmlns:xlink="http://www.w3.org/1999/xlink">
    <!-- Generator: Sketch 53 (72520) - https://sketchapp.com -->
    <title>Social/Twitter/Md</title>
    <desc>Created with Sketch.</desc>
    <g id="Social/Twitter/Md" stroke="none" stroke-width="1" fill="none" fill-rule="evenodd">
        <g id="Twitter_final" transform="translate(1.000000, 2.000000)" fill="#000000">
            <path d="M5.26,13 C3.61633216,13.0010489 2.0065471,12.5326847 0.62,11.65 C0.859767598,11.6649367 1.1002324,11.6649367 1.34,11.65 C2.70352437,11.6498095 4.02753995,11.1920381 5.1,10.35 C3.80160835,10.3362056 2.6594662,9.48867963 2.27,8.25 C2.45840408,8.28151578 2.64898633,8.29823352 2.84,8.3 C3.11040545,8.29955501 3.37950943,8.26255321 3.64,8.19 C2.20867538,7.91325263 1.18349086,6.64759272 1.21,5.19 L1.21,5.19 C1.63035624,5.42281929 2.09977508,5.55302305 2.58,5.57 C1.74565341,5.01575184 1.24296775,4.08165685 1.24,3.08 C1.23587967,2.54678867 1.37395186,2.02211436 1.64,1.56 C3.17837426,3.44981105 5.4462444,4.59828375 7.88,4.72 C7.8340622,4.48273741 7.8106249,4.24166801 7.81,4 C7.8081694,2.754267 8.57638983,1.63702115 9.74023158,1.19280674 C10.9040733,0.748592336 12.221341,1.06985034 13.05,2 C13.7408032,1.8566685 14.4009139,1.59262425 15,1.22 C14.7661287,1.92679504 14.2826071,2.52408632 13.64,2.9 C14.240886,2.82865584 14.8275225,2.66682507 15.38,2.42 C14.9758879,3.03327499 14.464346,3.56853081 13.87,4 L13.87,4.39 C13.8834016,6.67759608 12.9805834,8.87537848 11.3629809,10.4929809 C9.74537848,12.1105834 7.54759608,13.0134016 5.26,13" id="Path"></path>
        </g>
    </g>
</svg>