<?xml version="1.0" encoding="UTF-8"?>
<svg width="18px" height="18px" viewBox="0 0 18 18" version="1.1" xmlns="http://www.w3.org/2000/svg" xmlns:xlink="http://www.w3.org/1999/xlink">
    <!-- Generator: Sketch 53 (72520) - https://sketchapp.com -->
    <title>Social/Share/Md</title>
    <desc>Created with Sketch.</desc>
    <g id="Social/Share/Md" stroke="none" stroke-width="1" fill="none" fill-rule="evenodd">
        <g id="share-2" transform="translate(1.000000, 1.000000)" fill="#000000">
            <path d="M7.54675293,2.8174799 L4.70400679,5.20260855 C4.59823412,5.29135422 4.44054585,5.27755112 4.35180017,5.17177845 C4.34877843,5.16817694 4.34585887,5.16449092 4.34304499,5.16072477 L4.04336115,4.7596227 C3.96511858,4.65490148 3.98076307,4.50758234 4.0792542,4.42162927 L7.65764863,1.29876955 C7.85178745,1.12934488 8.14289004,1.13520169 8.33005707,1.312298 L8.33540986,1.31736278 C8.34098451,1.32187243 8.34648855,1.32652087 8.3519176,1.33130833 L11.9521538,4.50608015 C12.0498287,4.59221219 12.0650237,4.73889923 11.9870778,4.84322347 L11.6866784,5.24528321 C11.6838645,5.24904935 11.680945,5.25273537 11.6779232,5.25633688 C11.5891775,5.36210955 11.4314893,5.37591265 11.3257166,5.28716698 L8.53405762,2.94490163 L8.53405762,7 L12.5,7 C12.7761424,7 13,7.22385763 13,7.5 L13,13.5 C13,13.7761424 12.7761424,14 12.5,14 L3.5,14 C3.22385763,14 3,13.7761424 3,13.5 L3,7.5 C3,7.22385763 3.22385763,7 3.5,7 L7.54675293,7 L7.54675293,2.8174799 Z M7.54675293,8 L4,8 L4,13 L12,13 L12,8 L8.53405762,8 L8.53405762,10.75 C8.53405762,10.8880712 8.4221288,11 8.28405762,11 L7.79675293,11 C7.65868174,11 7.54675293,10.8880712 7.54675293,10.75 L7.54675293,8 Z" id="Combined-Shape"></path>
        </g>
    </g>
</svg>