<?xml version="1.0" encoding="UTF-8"?>
<svg width="94px" height="32px" viewBox="0 0 94 32" version="1.1" xmlns="http://www.w3.org/2000/svg" xmlns:xlink="http://www.w3.org/1999/xlink">
    <!-- Generator: Sketch 53.2 (72643) - https://sketchapp.com -->
    <title>Logos/Artsy Black</title>
    <desc>Created with Sketch.</desc>
    <g id="Logos/Artsy-Black" stroke="none" stroke-width="1" fill="none" fill-rule="evenodd">
        <path d="M2.35531073,2.17320219 L91.6779699,2.17320219 L91.6779699,29.7858798 L53.8719134,29.7858798 L53.8719134,25.2350601 L51.7531073,25.2350601 L51.7531073,29.7858798 L2.35531073,29.7858798 L2.35531073,2.17320219 L2.35531073,2.17320219 Z M0.161977401,31.9522623 L93.8711262,31.9522623 L93.8711262,0.00681967213 L0.161977401,0.00681967213 L0.161977401,31.9522623 Z" id="Fill-1" fill="#000000"></path>
        <path d="M19.1678569,10.2973552 L16.7661657,10.2973552 L12.5892731,20.9197814 L14.9900791,20.9197814 L16.0867458,17.9740328 L19.8621469,17.9740328 L20.9434124,20.9197814 L23.3454576,20.9197814 L19.1678569,10.2973552 L19.1678569,10.2973552 Z M16.7332392,16.0285027 L17.9658606,12.6994536 L19.1862674,16.0285027 L16.7332392,16.0285027 L16.7332392,16.0285027 Z" id="Fill-2" fill="#000000"></path>
        <polyline id="Fill-3" fill="#000000" points="40.0243503 10.2973552 40.0243503 12.4067322 43.7850584 12.4067322 43.7850584 20.9197814 46.0474313 20.9197814 46.0474313 12.4067322 49.8230094 12.4067322 49.8230094 10.2973552 40.0243503 10.2973552"></polyline>
        <polyline id="Fill-4" fill="#000000" points="78.5161996 10.2973552 75.7974576 14.8271913 73.0946478 10.2973552 70.4653032 10.2973552 74.6751224 17.0203279 74.6751224 20.9197814 76.9360791 20.9197814 76.9360791 17.0203279 81.1455443 10.2973552 78.5161996 10.2973552"></polyline>
        <path d="M65.9625085,15.3260765 C65.2627307,14.8207213 64.3052053,14.5888525 63.4597363,14.3837377 C63.2841281,14.341071 63.1125913,14.300153 62.9465424,14.2567869 L62.8419209,14.2303825 C62.1534727,14.0593661 61.2097552,13.8245246 61.2097552,13.0114098 C61.2097552,12.1421639 62.2345499,11.9108197 62.8394426,11.9108197 C63.5257665,11.9108197 64.3875217,12.1134863 64.5981808,13.0832787 L64.6050847,13.1159781 L66.7355744,13.1159781 L66.7343352,13.0738361 C66.6626403,11.1134426 65.2714049,9.98889617 62.9194576,9.98889617 C61.1672693,9.98889617 59.1217514,10.7972896 59.1217514,13.0748852 C59.1217514,15.4456831 61.2563126,15.9534863 63.1394991,16.4014863 C63.3119209,16.4425792 63.4820414,16.4827978 63.6477363,16.5245902 C64.6077401,16.7723716 65.0942034,17.2126776 65.0942034,17.8334426 C65.0942034,19.1686995 63.3237815,19.2360219 62.9676083,19.2360219 C61.7233032,19.2360219 61.0468927,18.7773552 60.8401281,17.793224 L60.8335782,17.761224 L58.670516,17.761224 L58.6724633,17.8024918 C58.6885725,18.6446339 58.7919548,19.1578579 59.3403766,19.7947104 C60.3798644,20.9933989 62.0284934,21.1722842 62.9194576,21.1722842 C64.9736497,21.1722842 67.1841544,20.1176831 67.1841544,17.800918 C67.1841544,16.8171366 66.7159247,15.868153 65.9625085,15.3260765" id="Fill-5" fill="#000000"></path>
        <path d="M34.9667608,16.4020109 C35.7878004,15.8095738 36.2979849,14.7614426 36.2979849,13.6662732 C36.2979849,12.4824481 35.6814087,11.3829071 34.6890094,10.7986885 C33.8481431,10.2973552 32.9975405,10.2973552 32.1749077,10.2973552 L27.3292166,10.2973552 L27.3292166,20.9197814 L29.6066365,20.9197814 L29.6066365,15.6686339 L33.8320339,20.9197814 L36.5902524,20.9197814 L33.3728324,17.0222514 C33.9488701,16.9239781 34.4284294,16.7905574 34.9667608,16.4020109 M29.6066365,15.1879344 L29.6066365,12.2988415 L32.1649944,12.2984918 C32.6732316,12.2984918 33.124113,12.3198251 33.4873672,12.5794973 C33.8309718,12.8271038 34.035435,13.2628634 34.035435,13.7435628 C34.035435,14.7021639 33.3434463,15.1879344 31.9785876,15.1879344 L29.6066365,15.1879344" id="Fill-6" fill="#000000"></path>
    </g>
</svg>