<?xml version="1.0" encoding="UTF-8"?>
<svg width="18px" height="18px" viewBox="0 0 18 18" version="1.1" xmlns="http://www.w3.org/2000/svg" xmlns:xlink="http://www.w3.org/1999/xlink">
    <!-- Generator: Sketch 53 (72520) - https://sketchapp.com -->
    <title>Action/Genome/Md</title>
    <desc>Created with Sketch.</desc>
    <g id="Action/Genome/Md" stroke="none" stroke-width="1" fill="none" fill-rule="evenodd">
        <path d="M12,4 L5.95,4 L5.95,5 L12,5 L12,4 Z M12,3 L12,2.01241865 L12.9969763,2.01241865 L12.9969763,5.59043509 C12.9969763,6.94829085 12.269357,8.25528812 10.6328865,9.01143798 C12.2650268,9.77962159 12.9969763,11.1001105 12.9969763,12.5201998 L12.9969763,14.2110024 C12.9989667,14.2237095 13,14.2367341 13,14.25 L13,14.7155037 C13,14.7287696 12.9989667,14.7417942 12.9969763,14.7545013 L12.9969763,15.9748312 L12,15.9748312 L12,14.9655037 L5.95,14.9655037 L5.95,16 L5,16 L5,12.5201998 C5,11.1008834 5.731153,9.78105904 7.36142556,9.01269278 C5.72633584,8.261821 5,6.96921682 5,5.62060823 L5,2 L5.95,2 L5.95,3 L12,3 Z M12.0021614,6 L5.95703076,6 C5.97551597,6.31685348 6.04217143,6.66436311 6.28159364,6.99504468 C6.79083696,7.69839376 7.66829222,8.23117081 8.99848533,8.49655513 C10.3273662,8.23134239 11.2042211,7.69376411 11.7139123,6.98200017 C11.947207,6.65621319 11.9951197,6.31359374 12.0021614,6 Z M12,14 L12,12.99 L5.95,12.99 L5.95,14 L12,14 Z M11.9581606,11.99 C11.7787361,10.9002822 10.9908978,9.92738915 8.99847701,9.51493613 C7.00505914,9.92738915 6.18304802,10.9002822 5.99421587,11.99 L11.9581606,11.99 Z" id="Combined-Shape" fill="#000000" fill-rule="nonzero"></path>
    </g>
</svg>