<?xml version="1.0" encoding="UTF-8"?>
<svg width="18px" height="18px" viewBox="0 0 18 18" version="1.1" xmlns="http://www.w3.org/2000/svg" xmlns:xlink="http://www.w3.org/1999/xlink">
    <!-- Generator: Sketch 53 (72520) - https://sketchapp.com -->
    <title>User/Heart/Md</title>
    <desc>Created with Sketch.</desc>
    <g id="User/Heart/Md" stroke="none" stroke-width="1" fill="none" fill-rule="evenodd">
        <g id="Heart_final" transform="translate(1.000000, 2.000000)" fill="#000000" fill-rule="nonzero">
            <path d="M11,1 C9.93881482,0.99916554 8.92078842,1.42004572 8.17,2.17 L8,2.34 L7.83,2.17 C6.26703416,0.607034158 3.73296584,0.607034158 2.17,2.17 C0.607034158,3.73296584 0.607034158,6.26703416 2.17,7.83 L7.65,13.3 C7.74073333,13.3966772 7.86741409,13.4515186 8,13.4515186 C8.13258591,13.4515186 8.25926667,13.3966772 8.35,13.3 L13.83,7.83 C14.9753208,6.6859537 15.3181603,4.96436955 14.6984897,3.46883954 C14.0788192,1.97330954 12.6188267,0.998726037 11,1 L11,1 Z M13.12,7.12 L8,12.24 L2.88,7.12 C2.31723005,6.55793057 2.00070021,5.7953814 2,5 C2,3.34314575 3.34314575,2 5,2 C5.7953814,2.00070021 6.55793057,2.31723005 7.12,2.88 L7.65,3.4 L7.65,3.4 L8,3.76 L8.35,3.4 L8.35,3.4 L8.88,2.88 C9.44206943,2.31723005 10.2046186,2.00070021 11,2 C12.6568542,2 14,3.34314575 14,5 C13.9992998,5.7953814 13.6827699,6.55793057 13.12,7.12 L13.12,7.12 Z" id="Shape"></path>
        </g>
    </g>
</svg>