<?xml version="1.0" encoding="UTF-8"?>
<svg width="18px" height="18px" viewBox="0 0 18 18" version="1.1" xmlns="http://www.w3.org/2000/svg" xmlns:xlink="http://www.w3.org/1999/xlink">
    <!-- Generator: Sketch 53 (72520) - https://sketchapp.com -->
    <title>User/Home/Md</title>
    <desc>Created with Sketch.</desc>
    <g id="User/Home/Md" stroke="none" stroke-width="1" fill="none" fill-rule="evenodd">
        <path d="M3.03161621,7.87333333 L1.95899064,7.87333333 C1.75181094,7.87333333 1.55704167,7.77456872 1.43461535,7.60743039 C1.2224844,7.31782591 1.2852891,6.91108899 1.57489358,6.69895804 L8.99773041,1.26184112 L16.5321804,6.6961516 C16.7015781,6.81833164 16.8019444,7.01447089 16.8019444,7.22333333 C16.8019444,7.58231842 16.5109295,7.87333333 16.1519444,7.87333333 L15.0675049,7.87333333 L15.0675049,15.9515186 L9.99169922,15.9515186 L9.99169922,10.9285714 L7.96691895,10.9285714 L7.96691895,15.9515186 L3.03161621,15.9515186 L3.03161621,7.87333333 Z M4.03161621,7.87333333 L4.03161621,14.9515186 L6.96691895,14.9515186 L6.96691895,9.92857143 L10.9916992,9.92857143 L10.9916992,14.9515186 L14.0675049,14.9515186 L14.0675049,7.87333333 L4.03161621,7.87333333 Z M15.0683711,6.87333333 L9.00226959,2.49808646 L3.02911431,6.87333333 L15.0683711,6.87333333 Z" id="Combined-Shape" fill="#000000" fill-rule="nonzero"></path>
    </g>
</svg>