<?xml version="1.0" encoding="UTF-8"?>
<svg width="18px" height="18px" viewBox="0 0 18 18" version="1.1" xmlns="http://www.w3.org/2000/svg" xmlns:xlink="http://www.w3.org/1999/xlink">
    <!-- Generator: Sketch 53 (72520) - https://sketchapp.com -->
    <title>User/User/Md</title>
    <desc>Created with Sketch.</desc>
    <g id="User/User/Md" stroke="none" stroke-width="1" fill="none" fill-rule="evenodd">
        <g id="Profile_final" transform="translate(2.000000, 2.000000)" fill="#000000" fill-rule="nonzero">
            <path d="M7,1 C8.01610851,1.00000806 8.93197189,1.61263758 9.31987897,2.55178857 C9.70778606,3.49093957 9.49120189,4.57131541 8.77127198,5.28837707 C8.05134207,6.00543873 6.97011024,6.21770831 6.03251525,5.82605523 C5.09492026,5.43440214 4.48595176,4.51610044 4.49,3.5 C4.49550733,2.11767212 5.61766115,0.999989029 7,1 L7,1 Z M7,2.22044605e-16 C5.57942875,5.76527026e-06 4.29892728,0.856275847 3.75623712,2.16910107 C3.21354695,3.48192629 3.51568506,4.99242125 4.52161254,5.99548285 C5.52754003,6.99854445 7.03889086,7.29637178 8.35016241,6.74993826 C9.66143396,6.20350473 10.5140472,4.92056548 10.51,3.5 C10.5044883,1.56538692 8.93462093,-7.85149816e-06 7,2.22044605e-16 Z M13,11 L13,14.0000026 L12,14.0000026 L12,11 C12,10.1715729 11.3284271,9.5 10.5,9.5 L3.5,9.5 C2.67157288,9.5 2,10.1715729 2,11 L2,14.0000026 L1,14.0000026 L1,11 C1,9.61928813 2.11928813,8.5 3.5,8.5 L10.5,8.5 C11.8807119,8.5 13,9.61928813 13,11 Z" id="Shape"></path>
        </g>
    </g>
</svg>