<?xml version="1.0" encoding="UTF-8"?>
<svg width="18px" height="18px" viewBox="0 0 18 18" version="1.1" xmlns="http://www.w3.org/2000/svg" xmlns:xlink="http://www.w3.org/1999/xlink">
    <!-- Generator: Sketch 53 (72520) - https://sketchapp.com -->
    <title>Indicator/CreditCard/Md</title>
    <desc>Created with Sketch.</desc>
    <g id="Indicator/CreditCard/Md" stroke="none" stroke-width="1" fill="none" fill-rule="evenodd">
        <path d="M2,6 L16,6 L16,4 L2,4 L2,6 Z M2,7 L2,14 L16,14 L16,7 L2,7 Z M1.5,3 L16.5,3 C16.7761424,3 17,3.22385763 17,3.5 L17,14.5 C17,14.7761424 16.7761424,15 16.5,15 L1.5,15 C1.22385763,15 1,14.7761424 1,14.5 L1,3.5 C1,3.22385763 1.22385763,3 1.5,3 Z M3,9 L7,9 L7,10 L3,10 L3,9 Z" id="Combined-Shape" fill="#000000" fill-rule="nonzero"></path>
    </g>
</svg>