<?xml version="1.0" encoding="UTF-8"?>
<svg width="18px" height="18px" viewBox="0 0 18 18" version="1.1" xmlns="http://www.w3.org/2000/svg" xmlns:xlink="http://www.w3.org/1999/xlink">
    <!-- Generator: Sketch 53 (72520) - https://sketchapp.com -->
    <title>Indicator/Document/Md</title>
    <desc>Created with Sketch.</desc>
    <g id="Indicator/Document/Md" stroke="none" stroke-width="1" fill="none" fill-rule="evenodd">
        <path d="M14,2 L4,2 L4,16 L14,16 L14,2 Z M15,1.5 L15,16.5 C15,16.7761424 14.7761424,17 14.5,17 L3.5,17 C3.22385763,17 3,16.7761424 3,16.5 L3,1.5 C3,1.22385763 3.22385763,1 3.5,1 L14.5,1 C14.7761424,1 15,1.22385763 15,1.5 Z M6,10 L12,10 L12,11 L6,11 L6,10 Z M6,13 L10,13 L10,14 L6,14 L6,13 Z" id="Combined-Shape" fill="#000000" fill-rule="nonzero"></path>
    </g>
</svg>