<?xml version="1.0" encoding="UTF-8"?>
<svg width="18px" height="18px" viewBox="0 0 18 18" version="1.1" xmlns="http://www.w3.org/2000/svg" xmlns:xlink="http://www.w3.org/1999/xlink">
    <!-- Generator: Sketch 53 (72520) - https://sketchapp.com -->
    <title>Action/Hide/Md</title>
    <desc>Created with Sketch.</desc>
    <g id="Action/Hide/Md" stroke="none" stroke-width="1" fill="none" fill-rule="evenodd">
        <g id="eye" transform="translate(3.000000, 3.000000)"></g>
        <g id="eye" transform="translate(1.000000, 2.000000)" fill="#000000" fill-rule="nonzero">
            <path d="M1.24869667,6.60494854 C1.1373218,6.79217779 1.14382667,7.02485465 1.26548624,7.20585618 C3.17245723,10.0427399 5.40646346,11.4285714 7.99932611,11.4285714 C10.5928102,11.4285714 12.8272789,10.0420692 14.7345474,7.20380083 C14.8558101,7.02334573 14.8626517,6.79149554 14.752249,6.6045234 C13.0384933,3.70269554 10.8078954,2.28571429 8.01017583,2.28571429 C5.2122393,2.28571429 2.97495646,3.70298046 1.24869667,6.60494854 Z M0.237631667,6.03058557 C2.1625973,2.79457853 4.7699889,1.14285714 8.01017583,1.14285714 C11.2513166,1.14285714 13.8530677,2.79561249 15.7651716,6.03329463 C16.0964091,6.59426098 16.0758859,7.28976345 15.7120998,7.83112537 C13.6031161,10.9695728 11.0215865,12.5714286 7.99932611,12.5714286 C4.97777755,12.5714286 2.39673899,10.9703209 0.288018499,7.83330679 C-0.0769779696,7.29027575 -0.0964918559,6.59227148 0.237631667,6.03058557 Z" id="Combined-Shape"></path>
            <path d="M8,9.71428571 C6.42204357,9.71428571 5.14285714,8.43509929 5.14285714,6.85714286 C5.14285714,5.27918643 6.42204357,4 8,4 C9.57795643,4 10.8571429,5.27918643 10.8571429,6.85714286 C10.8571429,8.43509929 9.57795643,9.71428571 8,9.71428571 Z M8,8.57142857 C8.94677386,8.57142857 9.71428571,7.80391671 9.71428571,6.85714286 C9.71428571,5.910369 8.94677386,5.14285714 8,5.14285714 C7.05322614,5.14285714 6.28571429,5.910369 6.28571429,6.85714286 C6.28571429,7.80391671 7.05322614,8.57142857 8,8.57142857 Z" id="Oval"></path>
            <polygon id="Line" points="14.0541714 0.0525150824 14.8590363 0.863881179 1.96577842 13.6538298 1.16091352 12.8424637"></polygon>
        </g>
    </g>
</svg>