<?xml version="1.0" encoding="UTF-8"?>
<svg width="32px" height="32px" viewBox="0 0 32 32" version="1.1" xmlns="http://www.w3.org/2000/svg" xmlns:xlink="http://www.w3.org/1999/xlink">
    <!-- Generator: Sketch 53.2 (72643) - https://sketchapp.com -->
    <title>Logos/Artsy Mark Black</title>
    <desc>Created with Sketch.</desc>
    <g id="Logos/Artsy-Mark-Black" stroke="none" stroke-width="1" fill="none" fill-rule="evenodd">
        <rect fill="#F8F8F8" x="0" y="0" width="32" height="32"></rect>
        <path d="M0,31.9633778 L31.8759111,31.9633778 L31.8759111,0.0888888889 L0,0.0888888889 L0,31.9633778 Z M29.5825778,29.6698667 L24.7587556,29.6698667 L24.7587556,23.3872 L22.464,23.3872 L22.464,29.6698667 L2.29351111,29.6698667 L2.29351111,2.38222222 L29.5825778,2.38222222 L29.5825778,29.6698667 L29.5825778,29.6698667 Z" id="Fill-1" fill="#FFFFFF"></path>
        <path d="M12.8542222,5.6768 L10.3239111,5.6768 L5.64035556,17.7372444 L8.06204444,17.7372444 L9.32746667,14.3548444 L13.8684444,14.3548444 L15.1146667,17.7372444 L17.5386667,17.7372444 L12.8542222,5.6768 L12.8542222,5.6768 Z M10.0334222,12.3127111 L11.5893333,8.11591111 L13.1262222,12.3127111 L10.0334222,12.3127111 L10.0334222,12.3127111 Z" id="Fill-2" fill="#FFFFFF"></path>
    </g>
</svg>