<?xml version="1.0" encoding="UTF-8"?>
<svg width="18px" height="18px" viewBox="0 0 18 18" version="1.1" xmlns="http://www.w3.org/2000/svg" xmlns:xlink="http://www.w3.org/1999/xlink">
    <!-- Generator: Sketch 53 (72520) - https://sketchapp.com -->
    <title>Social/Mail/Md</title>
    <desc>Created with Sketch.</desc>
    <g id="Social/Mail/Md" stroke="none" stroke-width="1" fill="none" fill-rule="evenodd">
        <path d="M2.875,5.39240381 L2.875,13.625 L15.125,13.625 L15.125,5.54440021 L9.00228216,11 L2.875,5.39240381 Z M14.5803161,4.875 L3.58795381,4.875 L9.01067081,9.83778879 L14.5803161,4.875 Z M2.01409959,4.60452074 L2,4.59161701 L2.02133779,4.57163831 C2.09130228,4.28482177 2.32619787,4.06263326 2.61984392,4.01125339 L2.63186287,4 L2.64052982,4.00793186 C2.67626374,4.00270601 2.71281586,4 2.75,4 L15.25,4 C15.6642136,4 16,4.33578644 16,4.75 L16,13.75 C16,14.1642136 15.6642136,14.5 15.25,14.5 L2.75,14.5 C2.33578644,14.5 2,14.1642136 2,13.75 L2,4.75 C2,4.70022558 2.00484872,4.65158364 2.01409959,4.60452074 Z" id="Combined-Shape" fill="#000000" fill-rule="nonzero"></path>
    </g>
</svg>