<?xml version="1.0" encoding="UTF-8"?>
<svg width="18px" height="18px" viewBox="0 0 18 18" version="1.1" xmlns="http://www.w3.org/2000/svg" xmlns:xlink="http://www.w3.org/1999/xlink">
    <!-- Generator: Sketch 53 (72520) - https://sketchapp.com -->
    <title>BasicAction/CircleArrowDown/Md</title>
    <desc>Created with Sketch.</desc>
    <g id="BasicAction/CircleArrowDown/Md" stroke="none" stroke-width="1" fill="none" fill-rule="evenodd">
        <g id="CircleArrowDown_final" transform="translate(1.000000, 1.000000)" fill="#000000" fill-rule="nonzero">
            <path d="M8,0.888888889 C11.9273582,0.888888889 15.1111111,4.07264178 15.1111111,8 C15.1111111,11.9273582 11.9273582,15.1111111 8,15.1111111 C4.07264178,15.1111111 0.888888889,11.9273582 0.888888889,8 C0.888888889,4.07264178 4.07264178,0.888888889 8,0.888888889 L8,0.888888889 Z M8,0 C3.581722,-2.705415e-16 5.41083001e-16,3.581722 0,8 C-5.41083001e-16,12.418278 3.581722,16 8,16 C12.418278,16 16,12.418278 16,8 C16,5.87826808 15.1571453,3.84343678 13.6568542,2.34314575 C12.1565632,0.842854723 10.1217319,1.2991861e-16 8,0 Z M12.3022222,6.62222222 L11.5555556,5.83111111 L8,9.43111111 L4.48888889,5.87555556 L3.69777778,6.65777778 L8,11.1022222 L12.3022222,6.62222222 Z" id="Shape"></path>
        </g>
    </g>
</svg>