<?xml version="1.0" encoding="UTF-8"?>
<svg width="18px" height="18px" viewBox="0 0 18 18" version="1.1" xmlns="http://www.w3.org/2000/svg" xmlns:xlink="http://www.w3.org/1999/xlink">
    <!-- Generator: Sketch 53 (72520) - https://sketchapp.com -->
    <title>User/Institution/Md</title>
    <desc>Created with Sketch.</desc>
    <g id="User/Institution/Md" stroke="none" stroke-width="1" fill="none" fill-rule="evenodd">
        <g id="Group-11" transform="translate(2.000000, 2.000000)" fill="#000000">
            <polygon id="Rectangle" points="2.38128662 4.6862793 3.38128662 4.6862793 3.38128662 12.0644531 2.38128662 12.0644531"></polygon>
            <rect id="Rectangle" x="1" y="12" width="12" height="1"></rect>
            <rect id="Rectangle" x="4.38793945" y="4.6862793" width="1" height="7.37817383"></rect>
            <rect id="Rectangle" x="6.38461538" y="4.6862793" width="1" height="7.37817383"></rect>
            <polygon id="Rectangle" points="8.37713623 4.6862793 9.37713623 4.6862793 9.37713623 12.0644531 8.37713623 12.0644531"></polygon>
            <rect id="Rectangle" x="10.385437" y="4.6862793" width="1" height="7.37817383"></rect>
            <path d="M6.98570618,1.23911348 L3.12046505,4 L10.6682812,4 L6.98570618,1.23911348 Z M7,7.10542736e-15 L13.0689261,4.54997276 C13.1793981,4.63279542 13.2018123,4.78949169 13.1189896,4.89996368 C13.0717779,4.96293649 12.9976677,5 12.9189624,5 L0.780116263,5 C0.642045076,5 0.530116263,4.88807119 0.530116263,4.75 C0.530116263,4.66926222 0.569107684,4.59349451 0.634806715,4.54656663 L7,7.10542736e-15 Z" id="Rectangle" fill-rule="nonzero"></path>
        </g>
    </g>
</svg>