<?xml version="1.0" encoding="UTF-8"?>
<svg width="18px" height="18px" viewBox="0 0 18 18" version="1.1" xmlns="http://www.w3.org/2000/svg" xmlns:xlink="http://www.w3.org/1999/xlink">
    <!-- Generator: Sketch 53 (72520) - https://sketchapp.com -->
    <title>User/User multi/Md</title>
    <desc>Created with Sketch.</desc>
    <g id="User/User-multi/Md" stroke="none" stroke-width="1" fill="none" fill-rule="evenodd">
        <g id="Group-2" transform="translate(2.000000, 3.000000)" fill="#333333" fill-rule="nonzero">
            <path d="M9.6537323,7.22619048 L9.6537323,10.4404762 L8.7787323,10.4404762 L8.7787323,7.22619048 C8.7787323,6.50131674 8.19110603,5.91369048 7.4662323,5.91369048 L6.54166667,5.91369048 C5.81679293,5.91369048 5.22916667,6.50131674 5.22916667,7.22619048 L5.22916667,10.4404762 L4.35416667,10.4404762 L4.35416667,7.22619048 C4.35416667,6.50131674 3.7665404,5.91369048 3.04166667,5.91369048 L2.18867493,5.91369048 C1.46380119,5.91369048 0.876174927,6.50131674 0.876174927,7.22619048 L0.876174927,10.4404762 L0.00117492676,10.4404762 L0.00117492676,7.22619048 C0.00117492676,6.01806759 0.980552037,5.03869048 2.18867493,5.03869048 L3.04166667,5.03869048 C3.75724121,5.03869048 4.39256657,5.38227808 4.79166667,5.91347721 C5.19076676,5.38227808 5.82609212,5.03869048 6.54166667,5.03869048 L7.4662323,5.03869048 C8.18180684,5.03869048 8.8171322,5.38227808 9.2162323,5.91347722 C9.6153324,5.38227808 10.2506578,5.03869048 10.9662323,5.03869048 L11.8450775,5.03869048 C13.0532004,5.03869048 14.0325775,6.01806759 14.0325775,7.22619048 L14.0325775,10.4404762 L13.1575775,10.4404762 L13.1575775,7.22619048 C13.1575775,6.50131674 12.5699512,5.91369048 11.8450775,5.91369048 L10.9662323,5.91369048 C10.2413586,5.91369048 9.6537323,6.50131674 9.6537323,7.22619048 Z M2.41071429,4.00892857 C1.38011149,4.00892857 0.544642857,3.17345993 0.544642857,2.14285714 C0.544642857,1.11225435 1.38011149,0.276785714 2.41071429,0.276785714 C3.44131708,0.276785714 4.27678571,1.11225435 4.27678571,2.14285714 C4.27678571,3.17345993 3.44131708,4.00892857 2.41071429,4.00892857 Z M2.41071429,3.13392857 C2.95806792,3.13392857 3.40178571,2.69021078 3.40178571,2.14285714 C3.40178571,1.59550351 2.95806792,1.15178571 2.41071429,1.15178571 C1.86336065,1.15178571 1.41964286,1.59550351 1.41964286,2.14285714 C1.41964286,2.69021078 1.86336065,3.13392857 2.41071429,3.13392857 Z M6.91071429,4.00892857 C5.88011149,4.00892857 5.04464286,3.17345993 5.04464286,2.14285714 C5.04464286,1.11225435 5.88011149,0.276785714 6.91071429,0.276785714 C7.94131708,0.276785714 8.77678571,1.11225435 8.77678571,2.14285714 C8.77678571,3.17345993 7.94131708,4.00892857 6.91071429,4.00892857 Z M6.91071429,3.13392857 C7.45806792,3.13392857 7.90178571,2.69021078 7.90178571,2.14285714 C7.90178571,1.59550351 7.45806792,1.15178571 6.91071429,1.15178571 C6.36336065,1.15178571 5.91964286,1.59550351 5.91964286,2.14285714 C5.91964286,2.69021078 6.36336065,3.13392857 6.91071429,3.13392857 Z M11.4107143,4.00892857 C10.3801115,4.00892857 9.54464286,3.17345993 9.54464286,2.14285714 C9.54464286,1.11225435 10.3801115,0.276785714 11.4107143,0.276785714 C12.4413171,0.276785714 13.2767857,1.11225435 13.2767857,2.14285714 C13.2767857,3.17345993 12.4413171,4.00892857 11.4107143,4.00892857 Z M11.4107143,3.13392857 C11.9580679,3.13392857 12.4017857,2.69021078 12.4017857,2.14285714 C12.4017857,1.59550351 11.9580679,1.15178571 11.4107143,1.15178571 C10.8633606,1.15178571 10.4196429,1.59550351 10.4196429,2.14285714 C10.4196429,2.69021078 10.8633606,3.13392857 11.4107143,3.13392857 Z" id="Combined-Shape"></path>
        </g>
    </g>
</svg>