<?xml version="1.0" encoding="UTF-8"?>
<svg width="18px" height="18px" viewBox="0 0 18 18" version="1.1" xmlns="http://www.w3.org/2000/svg" xmlns:xlink="http://www.w3.org/1999/xlink">
    <!-- Generator: Sketch 53 (72520) - https://sketchapp.com -->
    <title>Indicator/CircleHelp/Md</title>
    <desc>Created with Sketch.</desc>
    <g id="Indicator/CircleHelp/Md" stroke="none" stroke-width="1" fill="none" fill-rule="evenodd">
        <g id="CircleHelp_final" transform="translate(1.000000, 1.000000)" fill="#000000" fill-rule="nonzero">
            <path d="M8,0.888888889 C11.9273582,0.888888889 15.1111111,4.07264178 15.1111111,8 C15.1111111,11.9273582 11.9273582,15.1111111 8,15.1111111 C4.07264178,15.1111111 0.888888889,11.9273582 0.888888889,8 C0.888888889,4.07264178 4.07264178,0.888888889 8,0.888888889 L8,0.888888889 Z M8,0 C3.581722,-2.705415e-16 5.41083001e-16,3.581722 0,8 C-5.41083001e-16,12.418278 3.581722,16 8,16 C12.418278,16 16,12.418278 16,8 C16,5.87826808 15.1571453,3.84343678 13.6568542,2.34314575 C12.1565632,0.842854723 10.1217319,1.2991861e-16 8,0 Z M7.34222222,9.92 L7.34222222,9.77777778 C7.34222222,8.66666667 7.55555556,8.32 8.64888889,7.36 C9.05448442,7.06576233 9.30848256,6.60661184 9.34222222,6.10666667 C9.36486399,5.75987082 9.23376774,5.42067903 8.98378064,5.17925314 C8.73379355,4.93782725 8.39024117,4.81862549 8.04444444,4.85333333 C7.62971192,4.84228175 7.23082946,5.01287634 6.95234693,5.32040306 C6.6738644,5.62792978 6.54354837,6.04172617 6.59555556,6.45333333 L5.57333333,6.45333333 C5.56970442,5.79220065 5.83997628,5.15907268 6.31993456,4.70437536 C6.79989283,4.24967805 7.44669515,4.0139989 8.10666667,4.05333333 C8.68432477,3.98863872 9.26281652,4.16756476 9.70307586,4.54709867 C10.1433352,4.92663258 10.4055432,5.47244774 10.4266667,6.05333333 C10.4266667,7.76888889 8.28444444,8.06222222 8.28444444,9.74222222 L8.28444444,9.92 L7.34222222,9.92 Z M7.25333333,11.9466667 L7.25333333,10.8 L8.40888889,10.8 L8.40888889,11.9466667 L7.25333333,11.9466667 Z" id="Shape"></path>
        </g>
    </g>
</svg>