<?xml version="1.0" encoding="UTF-8"?>
<svg width="18px" height="18px" viewBox="0 0 18 18" version="1.1" xmlns="http://www.w3.org/2000/svg" xmlns:xlink="http://www.w3.org/1999/xlink">
    <!-- Generator: Sketch 53 (72520) - https://sketchapp.com -->
    <title>Indicator/Publications/Md</title>
    <desc>Created with Sketch.</desc>
    <g id="Indicator/Publications/Md" stroke="none" stroke-width="1" fill="none" fill-rule="evenodd">
        <g id="book" transform="translate(3.000000, 4.000000)" fill="#000000" fill-rule="nonzero">
            <g id="Combined-Shape">
                <path d="M6.45454545,2.98031538 L6.45454545,9.86650089 L11,8.74881571 L11,1.23214975 L6.49999639,2.17841069 L6.45454545,2.98031538 Z M6,11 L2.06945572e-13,9.53271246 L2.06945572e-13,3.0137004e-13 L6,1.26168025 L12,3.0137004e-13 L12,9.53271246 L6,11 Z M5.65490676,10.6757098 L5.59752051,10.9090909 L5.59752051,10.6217829 L5.65490676,10.6757098 Z M5.45454545,9.84414719 L5.45454545,2.16885175 L1,1.23214975 L1,8.74881571 L5.45454545,9.84414719 Z M6.40247949,9.90909091 L6.40247949,10.9090909 L6.16370135,9.93801676 L6.28133836,9.90909091 L6.40247949,9.90909091 Z"></path>
            </g>
        </g>
    </g>
</svg>